<mxfile host="Electron" agent="Mozilla/5.0 (Macintosh; Intel Mac OS X 10_15_7) AppleWebKit/537.36 (KHTML, like Gecko) draw.io/27.0.9 Chrome/134.0.6998.205 Electron/35.4.0 Safari/537.36" version="27.0.9">
  <diagram name="Page-1" id="hvNq0bLNqhKwoZfUZP0T">
    <mxGraphModel dx="909" dy="1660" grid="1" gridSize="10" guides="1" tooltips="1" connect="1" arrows="1" fold="1" page="1" pageScale="1" pageWidth="850" pageHeight="1100" math="0" shadow="0">
      <root>
        <mxCell id="0" />
        <mxCell id="1" parent="0" />
        <mxCell id="jyh1h8HAa2u7fzU4bVlv-119" value="&lt;b&gt;EX FLYTRAP CORE NETWORK&lt;/b&gt;" style="ellipse;whiteSpace=wrap;html=1;fontFamily=Helvetica;fontSize=11;labelBackgroundColor=default;fillColor=#dae8fc;strokeColor=#6c8ebf;labelPosition=center;verticalLabelPosition=top;align=center;verticalAlign=bottom;" parent="1" vertex="1">
          <mxGeometry x="120" y="-120" width="520" height="490" as="geometry" />
        </mxCell>
        <mxCell id="jyh1h8HAa2u7fzU4bVlv-79" value="CDAO AWS IL5 CLOUD" style="rounded=1;whiteSpace=wrap;html=1;labelPosition=center;verticalLabelPosition=top;align=center;verticalAlign=bottom;" parent="1" vertex="1">
          <mxGeometry x="259" y="-60" width="157.5" height="90" as="geometry" />
        </mxCell>
        <mxCell id="jyh1h8HAa2u7fzU4bVlv-77" value="" style="rounded=1;whiteSpace=wrap;html=1;fontFamily=Helvetica;fontSize=11;fontColor=default;labelBackgroundColor=default;dashed=1;labelPosition=center;verticalLabelPosition=bottom;align=center;verticalAlign=top;" parent="1" vertex="1">
          <mxGeometry x="347.5" y="210" width="90" height="135" as="geometry" />
        </mxCell>
        <mxCell id="jyh1h8HAa2u7fzU4bVlv-12" value="Nett Warrior&amp;nbsp;&lt;div&gt;IL5 AWS CLOUD&lt;/div&gt;" style="rounded=1;whiteSpace=wrap;html=1;labelPosition=center;verticalLabelPosition=top;align=center;verticalAlign=bottom;" parent="1" vertex="1">
          <mxGeometry x="450" y="-10" width="141.75" height="90" as="geometry" />
        </mxCell>
        <mxCell id="jyh1h8HAa2u7fzU4bVlv-13" value="TAK" style="rounded=1;whiteSpace=wrap;html=1;labelPosition=center;verticalLabelPosition=top;align=center;verticalAlign=bottom;" parent="1" vertex="1">
          <mxGeometry x="480" y="12" width="81.75" height="50" as="geometry" />
        </mxCell>
        <mxCell id="jyh1h8HAa2u7fzU4bVlv-20" style="rounded=0;orthogonalLoop=1;jettySize=auto;html=1;endArrow=none;startFill=0;" parent="1" target="jyh1h8HAa2u7fzU4bVlv-23" edge="1">
          <mxGeometry relative="1" as="geometry">
            <mxPoint x="412.5" y="190" as="sourcePoint" />
          </mxGeometry>
        </mxCell>
        <mxCell id="jyh1h8HAa2u7fzU4bVlv-24" style="rounded=0;orthogonalLoop=1;jettySize=auto;html=1;entryX=0.5;entryY=1;entryDx=0;entryDy=0;endArrow=none;startFill=0;" parent="1" source="jyh1h8HAa2u7fzU4bVlv-27" edge="1">
          <mxGeometry relative="1" as="geometry">
            <mxPoint x="412.5" y="264" as="targetPoint" />
          </mxGeometry>
        </mxCell>
        <mxCell id="jyh1h8HAa2u7fzU4bVlv-114" style="edgeStyle=none;shape=connector;rounded=0;orthogonalLoop=1;jettySize=auto;html=1;entryX=0.5;entryY=1;entryDx=0;entryDy=0;strokeColor=default;align=center;verticalAlign=middle;fontFamily=Helvetica;fontSize=11;fontColor=default;labelBackgroundColor=default;startFill=0;endArrow=none;" parent="1" source="jyh1h8HAa2u7fzU4bVlv-28" target="jyh1h8HAa2u7fzU4bVlv-13" edge="1">
          <mxGeometry relative="1" as="geometry" />
        </mxCell>
        <mxCell id="jyh1h8HAa2u7fzU4bVlv-116" style="edgeStyle=none;shape=connector;rounded=0;orthogonalLoop=1;jettySize=auto;html=1;strokeColor=default;align=center;verticalAlign=middle;fontFamily=Helvetica;fontSize=11;fontColor=default;labelBackgroundColor=default;startFill=0;endArrow=none;" parent="1" source="jyh1h8HAa2u7fzU4bVlv-28" target="jyh1h8HAa2u7fzU4bVlv-80" edge="1">
          <mxGeometry relative="1" as="geometry" />
        </mxCell>
        <mxCell id="jyh1h8HAa2u7fzU4bVlv-28" value="pLEO / 5G&lt;div&gt;Transport&lt;/div&gt;" style="rounded=1;whiteSpace=wrap;html=1;" parent="1" vertex="1">
          <mxGeometry x="278.25" y="130" width="199" height="40" as="geometry" />
        </mxCell>
        <mxCell id="jyh1h8HAa2u7fzU4bVlv-31" style="edgeStyle=orthogonalEdgeStyle;rounded=0;orthogonalLoop=1;jettySize=auto;html=1;endArrow=none;startFill=0;" parent="1" target="jyh1h8HAa2u7fzU4bVlv-34" edge="1">
          <mxGeometry relative="1" as="geometry">
            <mxPoint x="629.5" y="203" as="sourcePoint" />
          </mxGeometry>
        </mxCell>
        <mxCell id="jyh1h8HAa2u7fzU4bVlv-35" style="edgeStyle=orthogonalEdgeStyle;rounded=0;orthogonalLoop=1;jettySize=auto;html=1;entryX=0.5;entryY=1;entryDx=0;entryDy=0;endArrow=none;startFill=0;" parent="1" source="jyh1h8HAa2u7fzU4bVlv-38" edge="1">
          <mxGeometry relative="1" as="geometry">
            <mxPoint x="630" y="267" as="targetPoint" />
          </mxGeometry>
        </mxCell>
        <mxCell id="jyh1h8HAa2u7fzU4bVlv-50" style="rounded=0;orthogonalLoop=1;jettySize=auto;html=1;entryX=1;entryY=0.5;entryDx=0;entryDy=0;endArrow=none;startFill=0;" parent="1" target="jyh1h8HAa2u7fzU4bVlv-33" edge="1">
          <mxGeometry relative="1" as="geometry">
            <mxPoint x="745.3631386861316" y="300" as="sourcePoint" />
          </mxGeometry>
        </mxCell>
        <mxCell id="jyh1h8HAa2u7fzU4bVlv-46" style="rounded=0;orthogonalLoop=1;jettySize=auto;html=1;entryX=0.5;entryY=1;entryDx=0;entryDy=0;endArrow=none;startFill=0;" parent="1" source="jyh1h8HAa2u7fzU4bVlv-47" edge="1">
          <mxGeometry relative="1" as="geometry">
            <mxPoint x="782.5" y="435" as="sourcePoint" />
            <mxPoint x="761.75" y="340" as="targetPoint" />
          </mxGeometry>
        </mxCell>
        <mxCell id="hDkIq6Xu9XrADPTMmhmZ-6" style="edgeStyle=none;shape=connector;rounded=0;orthogonalLoop=1;jettySize=auto;html=1;entryX=0.5;entryY=1;entryDx=0;entryDy=0;strokeColor=default;align=center;verticalAlign=middle;fontFamily=Helvetica;fontSize=11;fontColor=default;labelBackgroundColor=default;startFill=0;endArrow=none;" edge="1" parent="1" source="jyh1h8HAa2u7fzU4bVlv-56" target="jyh1h8HAa2u7fzU4bVlv-28">
          <mxGeometry relative="1" as="geometry" />
        </mxCell>
        <mxCell id="hDkIq6Xu9XrADPTMmhmZ-7" style="edgeStyle=none;shape=connector;rounded=0;orthogonalLoop=1;jettySize=auto;html=1;entryX=0;entryY=0.5;entryDx=0;entryDy=0;strokeColor=default;align=center;verticalAlign=middle;fontFamily=Helvetica;fontSize=11;fontColor=default;labelBackgroundColor=default;startFill=0;endArrow=none;" edge="1" parent="1" source="jyh1h8HAa2u7fzU4bVlv-56" target="hDkIq6Xu9XrADPTMmhmZ-4">
          <mxGeometry relative="1" as="geometry" />
        </mxCell>
        <mxCell id="jyh1h8HAa2u7fzU4bVlv-56" value="FOCUS" style="rounded=1;whiteSpace=wrap;html=1;" parent="1" vertex="1">
          <mxGeometry x="368.5" y="230" width="48" height="40" as="geometry" />
        </mxCell>
        <mxCell id="jyh1h8HAa2u7fzU4bVlv-58" value="SENSOR" style="rounded=1;whiteSpace=wrap;html=1;" parent="1" vertex="1">
          <mxGeometry x="366.25" y="290" width="52.5" height="40" as="geometry" />
        </mxCell>
        <mxCell id="jyh1h8HAa2u7fzU4bVlv-59" value="" style="rounded=0;orthogonalLoop=1;jettySize=auto;html=1;entryX=0.5;entryY=1;entryDx=0;entryDy=0;endArrow=none;startFill=0;" parent="1" source="jyh1h8HAa2u7fzU4bVlv-58" target="jyh1h8HAa2u7fzU4bVlv-56" edge="1">
          <mxGeometry relative="1" as="geometry">
            <mxPoint x="163.25" y="335" as="sourcePoint" />
            <mxPoint x="178.25" y="395" as="targetPoint" />
          </mxGeometry>
        </mxCell>
        <mxCell id="hDkIq6Xu9XrADPTMmhmZ-2" style="rounded=0;orthogonalLoop=1;jettySize=auto;html=1;endArrow=none;startFill=0;dashed=1;" edge="1" parent="1" source="jyh1h8HAa2u7fzU4bVlv-80" target="jyh1h8HAa2u7fzU4bVlv-13">
          <mxGeometry relative="1" as="geometry" />
        </mxCell>
        <mxCell id="jyh1h8HAa2u7fzU4bVlv-80" value="PLTR MSS" style="rounded=1;whiteSpace=wrap;html=1;labelPosition=center;verticalLabelPosition=top;align=center;verticalAlign=bottom;" parent="1" vertex="1">
          <mxGeometry x="278" y="-31" width="108.5" height="50" as="geometry" />
        </mxCell>
        <mxCell id="jyh1h8HAa2u7fzU4bVlv-117" style="edgeStyle=none;shape=connector;rounded=0;orthogonalLoop=1;jettySize=auto;html=1;entryX=0.5;entryY=1;entryDx=0;entryDy=0;strokeColor=default;align=center;verticalAlign=middle;fontFamily=Helvetica;fontSize=11;fontColor=default;labelBackgroundColor=default;startFill=0;endArrow=none;" parent="1" source="jyh1h8HAa2u7fzU4bVlv-82" target="jyh1h8HAa2u7fzU4bVlv-80" edge="1">
          <mxGeometry relative="1" as="geometry" />
        </mxCell>
        <mxCell id="jyh1h8HAa2u7fzU4bVlv-118" style="edgeStyle=none;shape=connector;rounded=0;orthogonalLoop=1;jettySize=auto;html=1;entryX=0;entryY=0.5;entryDx=0;entryDy=0;strokeColor=default;align=center;verticalAlign=middle;fontFamily=Helvetica;fontSize=11;fontColor=default;labelBackgroundColor=default;startFill=0;endArrow=none;dashed=1;" parent="1" source="jyh1h8HAa2u7fzU4bVlv-82" target="jyh1h8HAa2u7fzU4bVlv-13" edge="1">
          <mxGeometry relative="1" as="geometry" />
        </mxCell>
        <mxCell id="jyh1h8HAa2u7fzU4bVlv-82" value="AWS Comm. Cloud" style="rounded=1;whiteSpace=wrap;html=1;labelPosition=center;verticalLabelPosition=top;align=center;verticalAlign=bottom;" parent="1" vertex="1">
          <mxGeometry x="150" y="62" width="100" height="50" as="geometry" />
        </mxCell>
        <mxCell id="jyh1h8HAa2u7fzU4bVlv-83" value="SkyFortress" style="rounded=1;whiteSpace=wrap;html=1;fontFamily=Helvetica;fontSize=11;fontColor=default;labelBackgroundColor=default;dashed=1;labelPosition=center;verticalLabelPosition=bottom;align=center;verticalAlign=top;" parent="1" vertex="1">
          <mxGeometry x="250" y="220" width="90" height="87.5" as="geometry" />
        </mxCell>
        <mxCell id="jyh1h8HAa2u7fzU4bVlv-101" style="edgeStyle=none;shape=connector;rounded=0;orthogonalLoop=1;jettySize=auto;html=1;entryX=0.5;entryY=1;entryDx=0;entryDy=0;strokeColor=default;align=center;verticalAlign=middle;fontFamily=Helvetica;fontSize=11;fontColor=default;labelBackgroundColor=default;startFill=0;endArrow=none;exitX=0.25;exitY=0;exitDx=0;exitDy=0;" parent="1" source="jyh1h8HAa2u7fzU4bVlv-28" target="jyh1h8HAa2u7fzU4bVlv-82" edge="1">
          <mxGeometry relative="1" as="geometry" />
        </mxCell>
        <mxCell id="hDkIq6Xu9XrADPTMmhmZ-5" style="edgeStyle=none;shape=connector;rounded=0;orthogonalLoop=1;jettySize=auto;html=1;entryX=0.25;entryY=1;entryDx=0;entryDy=0;strokeColor=default;align=center;verticalAlign=middle;fontFamily=Helvetica;fontSize=11;fontColor=default;labelBackgroundColor=default;startFill=0;endArrow=none;" edge="1" parent="1" source="jyh1h8HAa2u7fzU4bVlv-84" target="jyh1h8HAa2u7fzU4bVlv-28">
          <mxGeometry relative="1" as="geometry" />
        </mxCell>
        <mxCell id="jyh1h8HAa2u7fzU4bVlv-84" value="Acoustic SENSOR&lt;div&gt;with 5G&lt;/div&gt;" style="rounded=1;whiteSpace=wrap;html=1;" parent="1" vertex="1">
          <mxGeometry x="264" y="251.5" width="60" height="40" as="geometry" />
        </mxCell>
        <mxCell id="hDkIq6Xu9XrADPTMmhmZ-3" value="FUSION" style="rounded=1;whiteSpace=wrap;html=1;" vertex="1" parent="1">
          <mxGeometry x="173" y="67" width="54" height="40" as="geometry" />
        </mxCell>
        <mxCell id="hDkIq6Xu9XrADPTMmhmZ-8" style="edgeStyle=none;shape=connector;rounded=0;orthogonalLoop=1;jettySize=auto;html=1;entryX=0.75;entryY=1;entryDx=0;entryDy=0;strokeColor=default;align=center;verticalAlign=middle;fontFamily=Helvetica;fontSize=11;fontColor=default;labelBackgroundColor=default;startFill=0;endArrow=none;" edge="1" parent="1" source="hDkIq6Xu9XrADPTMmhmZ-4" target="jyh1h8HAa2u7fzU4bVlv-28">
          <mxGeometry relative="1" as="geometry" />
        </mxCell>
        <mxCell id="hDkIq6Xu9XrADPTMmhmZ-4" value="SOLDIER" style="ellipse;whiteSpace=wrap;html=1;aspect=fixed;fontFamily=Helvetica;fontSize=11;fontColor=default;labelBackgroundColor=default;" vertex="1" parent="1">
          <mxGeometry x="470" y="243" width="41.5" height="41.5" as="geometry" />
        </mxCell>
      </root>
    </mxGraphModel>
  </diagram>
</mxfile>
